<?xml version="1.0" encoding="UTF-8" standalone="no"?>
<!-- Created with Inkscape (http://www.inkscape.org/) -->

<svg
   width="802.70099"
   height="115"
   viewBox="0 0 212.38127 30.427218"
   version="1.1"
   id="svg5"
   sodipodi:docname="wwpyellow.svg"
   inkscape:version="1.2 (dc2aedaf03, 2022-05-15)"
   xmlns:inkscape="http://www.inkscape.org/namespaces/inkscape"
   xmlns:sodipodi="http://sodipodi.sourceforge.net/DTD/sodipodi-0.dtd"
   xmlns="http://www.w3.org/2000/svg"
   xmlns:svg="http://www.w3.org/2000/svg">
  <sodipodi:namedview
     id="namedview333"
     pagecolor="#ffffff"
     bordercolor="#000000"
     borderopacity="0.25"
     inkscape:showpageshadow="2"
     inkscape:pageopacity="0.0"
     inkscape:pagecheckerboard="0"
     inkscape:deskcolor="#d1d1d1"
     showgrid="false"
     inkscape:zoom="1.5435386"
     inkscape:cx="401.02658"
     inkscape:cy="213.79446"
     inkscape:window-width="1920"
     inkscape:window-height="1017"
     inkscape:window-x="-8"
     inkscape:window-y="-8"
     inkscape:window-maximized="1"
     inkscape:current-layer="layer1" />
  <defs
     id="defs2">
    <clipPath
       clipPathUnits="userSpaceOnUse"
       id="clipPath1426">
      <path
         style="display:block;fill:none;fill-opacity:1;fill-rule:evenodd;stroke:#000000;stroke-width:0.2;stroke-linecap:square;stroke-dasharray:none"
         d="m 104.51663,103.61845 -0.29108,0.28553 -1.0236,3.93978 0.64295,3.19909 0.46294,0.22684 0.21498,0.21394 1.37666,-1.02009 0.5457,-3.09232 -0.56224,-2.19108 z"
         id="path1428" />
    </clipPath>
    <clipPath
       clipPathUnits="userSpaceOnUse"
       id="clipath_lpe_path-effect1466">
      <path
         style="display:block;fill:none;fill-opacity:1;fill-rule:evenodd;stroke:#000000;stroke-width:0.2;stroke-linecap:square;stroke-dasharray:none"
         d="m 104.51663,103.61845 -0.29108,0.28553 -1.0236,3.93978 0.64295,3.19909 0.46294,0.22684 0.21498,0.21394 1.37666,-1.02009 0.5457,-3.09232 -0.56224,-2.19108 z"
         id="path1468" />
    </clipPath>
    <clipPath
       clipPathUnits="userSpaceOnUse"
       id="clipPath3072">
      <rect
         style="display:none;opacity:0.908517;fill:#f2b705;fill-opacity:1;fill-rule:evenodd;stroke:none;stroke-width:0.887754;stroke-linecap:round"
         id="rect3074"
         width="7.3256507"
         height="0.97771281"
         x="72.373405"
         y="68.938095" />
      <path
         id="lpe_path-effect3076"
         style="opacity:0.908517;fill:#f2b705;fill-opacity:1;fill-rule:evenodd;stroke:none;stroke-width:0.887754;stroke-linecap:round"
         class="powerclip"
         d="M 65.206186,62.984497 H 86.866271 V 75.86941 H 65.206186 Z m 7.167219,5.953598 v 0.977713 h 7.325651 v -0.977713 z" />
    </clipPath>
  </defs>
  <g
     id="layer1">
    <text
       xml:space="preserve"
       style="font-size:3.175px;fill:#000000;fill-opacity:0;fill-rule:evenodd;stroke-width:1.32292;stroke-linecap:round"
       x="87.645157"
       y="92.967743"
       id="text186"><tspan
         id="tspan184"
         style="fill:#000000;fill-opacity:1;stroke:none;stroke-width:1.32292"
         x="87.645157"
         y="92.967743" /></text>
    <g
       id="g2936"
       transform="matrix(9.3708636,0,0,9.3708636,-555.45619,-635.37492)"
       inkscape:export-filename="yellow300.png"
       inkscape:export-xdpi="36.106548"
       inkscape:export-ydpi="36.106548">
      <g
         aria-label="WEBSITES"
         id="g2928"
         style="font-weight:600;font-size:3.9331px;font-family:Inter;-inkscape-font-specification:'Inter, Semi-Bold';letter-spacing:0.264583px;fill-rule:evenodd;stroke-width:1.63879;stroke-linecap:round">
        <g
           aria-label="SITES"
           id="g2926"
           style="font-weight:normal;font-size:3.85568px;-inkscape-font-specification:Inter;fill:#f2f2f2;stroke:#f22f1d;stroke-width:0.364314;stroke-linecap:square">
          <g
             id="g3062"
             clip-path="url(#clipPath3072)">
            <path
               d="m 71.831426,68.793697 q -0.01917,-0.179366 -0.161566,-0.279318 -0.141028,-0.09995 -0.366947,-0.09995 -0.158828,0 -0.272472,0.04792 -0.113644,0.04792 -0.173889,0.130075 -0.06024,0.08215 -0.06161,0.187581 0,0.08763 0.03971,0.151981 0.04108,0.06435 0.110906,0.109537 0.06983,0.04381 0.15472,0.07394 0.08489,0.03012 0.17115,0.05066 l 0.262888,0.06572 q 0.158827,0.03697 0.305332,0.09995 0.147874,0.06298 0.264257,0.158828 0.117751,0.09584 0.186211,0.231395 0.06846,0.135552 0.06846,0.317656 0,0.246457 -0.125967,0.434038 -0.125967,0.186211 -0.364209,0.29164 -0.236872,0.10406 -0.573696,0.10406 -0.32724,0 -0.56822,-0.101321 -0.239611,-0.101322 -0.375162,-0.295749 -0.134182,-0.194427 -0.145136,-0.473744 h 0.49976 q 0.01095,0.146504 0.09037,0.243718 0.07941,0.09721 0.20675,0.145136 0.128705,0.04792 0.287533,0.04792 0.165674,0 0.290271,-0.04929 0.125967,-0.05066 0.197166,-0.139658 0.0712,-0.09037 0.07257,-0.210858 -0.0014,-0.109536 -0.06435,-0.180735 -0.06298,-0.07257 -0.176627,-0.12049 -0.112275,-0.04929 -0.262887,-0.08763 l -0.319025,-0.08215 q -0.346409,-0.089 -0.547682,-0.269734 -0.199904,-0.182104 -0.199904,-0.483329 0,-0.247826 0.134182,-0.434038 0.135551,-0.186211 0.368316,-0.288902 0.232765,-0.104059 0.527144,-0.104059 0.298487,0 0.523036,0.104059 0.225919,0.102691 0.354624,0.286164 0.128705,0.182104 0.132813,0.418977 z"
               style="font-weight:600;-inkscape-font-specification:'Inter Semi-Bold';stroke:none"
               id="path2914" />
            <path
               d="m 73.582962,68.022834 v 2.804131 h -0.507975 v -2.804131 z"
               style="font-weight:600;-inkscape-font-specification:'Inter Semi-Bold';stroke:none"
               id="path2916" />
            <path
               d="m 74.276108,68.448657 v -0.425823 h 2.237281 v 0.425823 h -0.866707 v 2.378308 h -0.503867 v -2.378308 z"
               style="font-weight:600;-inkscape-font-specification:'Inter Semi-Bold';stroke:none"
               id="path2918" />
            <path
               d="m 77.207903,70.826965 v -2.804131 h 1.823781 v 0.425823 h -1.315806 v 0.761278 h 1.221331 v 0.425822 h -1.221331 v 0.765386 h 1.326759 v 0.425822 z"
               style="font-weight:600;-inkscape-font-specification:'Inter Semi-Bold';stroke:none"
               id="path2920" />
            <path
               d="m 81.339119,68.793697 q -0.01917,-0.179366 -0.161566,-0.279318 -0.141028,-0.09995 -0.366947,-0.09995 -0.158827,0 -0.272471,0.04792 -0.113644,0.04792 -0.173889,0.130075 -0.06024,0.08215 -0.06161,0.187581 0,0.08763 0.03971,0.151981 0.04108,0.06435 0.110906,0.109537 0.06983,0.04381 0.15472,0.07394 0.08489,0.03012 0.171151,0.05066 l 0.262887,0.06572 q 0.158828,0.03697 0.305332,0.09995 0.147875,0.06298 0.264257,0.158828 0.117751,0.09584 0.186212,0.231395 0.06846,0.135552 0.06846,0.317656 0,0.246457 -0.125967,0.434038 -0.125967,0.186211 -0.364208,0.29164 -0.236873,0.10406 -0.573697,0.10406 -0.32724,0 -0.56822,-0.101321 -0.239611,-0.101322 -0.375162,-0.295749 -0.134182,-0.194427 -0.145136,-0.473744 h 0.49976 q 0.01095,0.146504 0.09037,0.243718 0.07941,0.09721 0.206749,0.145136 0.128706,0.04792 0.287533,0.04792 0.165674,0 0.290272,-0.04929 0.125967,-0.05066 0.197165,-0.139658 0.0712,-0.09037 0.07257,-0.210858 -0.0014,-0.109536 -0.06435,-0.180735 -0.06298,-0.07257 -0.176627,-0.12049 -0.112275,-0.04929 -0.262887,-0.08763 l -0.319025,-0.08215 q -0.346409,-0.089 -0.547682,-0.269734 -0.199904,-0.182104 -0.199904,-0.483329 0,-0.247826 0.134182,-0.434038 0.135552,-0.186211 0.368317,-0.288902 0.232764,-0.104059 0.527143,-0.104059 0.298487,0 0.523036,0.104059 0.225919,0.102691 0.354624,0.286164 0.128706,0.182104 0.132813,0.418977 z"
               style="font-weight:600;-inkscape-font-specification:'Inter Semi-Bold';stroke:none"
               id="path2922" />
          </g>
          <rect
             style="opacity:1;fill:#f2f2f2;fill-opacity:1;fill-rule:evenodd;stroke:none;stroke-width:1.32292;stroke-linecap:round"
             id="rect3132"
             width="0.083312929"
             height="0.19732009"
             x="75.387474"
             y="69.392509" />
          <rect
             style="opacity:1;fill:#f2f2f2;fill-opacity:1;fill-rule:evenodd;stroke:none;stroke-width:1.32292;stroke-linecap:round"
             id="rect3393"
             width="0.39317855"
             height="0.10523738"
             x="75.983818"
             y="69.488976" />
        </g>
      </g>
      <g
         aria-label="WITH PASSION"
         transform="matrix(0.64543569,0,0,0.53883855,31.223466,27.123013)"
         id="g2934"
         style="font-weight:600;font-size:2.3166px;font-family:Inter;-inkscape-font-specification:'Inter, Semi-Bold';letter-spacing:0.289574px;fill-rule:evenodd;stroke-width:1.79358;stroke-linecap:round">
        <text
           xml:space="preserve"
           style="font-style:normal;font-variant:normal;font-weight:500;font-stretch:normal;font-size:1.51839px;font-family:Inter;-inkscape-font-specification:'Inter Medium';font-variant-ligatures:normal;font-variant-caps:normal;font-variant-numeric:normal;font-variant-east-asian:normal;letter-spacing:0px;fill:#f2f2f2;fill-opacity:1;fill-rule:evenodd;stroke:none;stroke-width:0.14347;stroke-linecap:square;stroke-dasharray:none;stroke-opacity:1"
           x="62.904858"
           y="80.093628"
           id="text2932"
           transform="scale(1.013042,0.98712591)"><tspan
             id="tspan2930"
             style="font-style:normal;font-variant:normal;font-weight:600;font-stretch:normal;font-family:Inter;-inkscape-font-specification:'Inter Semi-Bold';fill:#f2f2f2;fill-opacity:1;stroke:none;stroke-width:0.14347"
             x="62.904858"
             y="80.093628"
             dx="0">WITH PASSION</tspan></text>
      </g>
    </g>
    <g
       id="g3294"
       transform="matrix(9.3708636,0,0,9.3708636,-979.61353,-651.49028)">
      <g
         id="g3260"
         transform="translate(-0.96669715,0.0097148)"
         style="fill:#f2b705;fill-opacity:1">
        <path
           id="path2892"
           style="opacity:0.8;fill:#f2b705;fill-opacity:1;stroke-width:0.0146933"
           d="m 105.5752,69.698653 h 0.99197 l 1.41469,2.876631 h -0.91099 z" />
        <path
           id="path2894"
           style="opacity:0.8;fill:#f2b705;fill-opacity:1;stroke-width:0.0146933"
           d="m 109.47783,69.698653 h 0.911 v 2.876631 h -0.911 z" />
        <path
           style="opacity:0.8;fill:#f2b705;fill-opacity:1;stroke-width:0.0146933;stroke-dasharray:none"
           d="m 107.07087,72.575284 h 0.91099 l 0.61128,-2.876631 h -0.91101 z"
           id="path2896" />
        <path
           style="opacity:0.8;fill:#f2b705;fill-opacity:1;stroke-width:0.0146933;stroke-dasharray:none"
           d="m 107.68213,69.698653 h 0.91101 l 1.79569,2.876631 h -0.911 z"
           id="path2898" />
      </g>
      <g
         id="g3277"
         transform="translate(-0.10635357,0.00971637)">
        <path
           id="path2908"
           style="opacity:0.8;fill:#f2b705;fill-opacity:1;stroke-width:0.0146933;stroke-dasharray:none"
           d="m 112.66079,69.698653 h 0.91101 v 2.876628 h -0.91101 z" />
        <path
           style="opacity:0.8;fill:none;fill-opacity:1;stroke:#f2b705;stroke-width:0.200285;stroke-dasharray:none;stroke-opacity:1"
           d="m 113.57033,69.798795 c 1.89704,0.005 1.34926,1.76166 -5.8e-4,1.761443"
           id="path2910" />
        <path
           style="opacity:0.8;fill:none;fill-opacity:1;stroke:#f2b705;stroke-width:0.200285;stroke-dasharray:none;stroke-opacity:1"
           d="m 113.57027,70.713914 c 1.34222,0.0013 2.10454,1.756763 4.9e-4,1.761"
           id="path2912" />
      </g>
      <g
         id="g3266"
         transform="translate(-0.50205536,-0.0034852)">
        <g
           id="g3272">
          <path
             id="path2906"
             style="opacity:0.8;fill:#f2b705;fill-opacity:1;stroke-width:0.0146828;stroke-dasharray:none"
             d="m 110.61372,69.713905 h 0.91099 v 2.872527 h -0.91099 z" />
          <path
             style="opacity:0.8;fill:none;fill-opacity:1;fill-rule:evenodd;stroke:#f2b705;stroke-width:0.2;stroke-linecap:butt;stroke-dasharray:none;stroke-opacity:1"
             d="m 110.61381,69.815505 1.75428,-0.0016"
             id="path1039" />
          <path
             style="opacity:0.8;fill:none;fill-opacity:1;fill-rule:evenodd;stroke:#f2b705;stroke-width:0.2;stroke-linecap:butt;stroke-dasharray:none;stroke-opacity:1"
             d="m 110.61259,71.149436 1.75428,-0.0016"
             id="path1041" />
          <path
             style="opacity:0.8;fill:none;fill-opacity:1;fill-rule:evenodd;stroke:#f2b705;stroke-width:0.2;stroke-linecap:butt;stroke-dasharray:none;stroke-opacity:1"
             d="m 110.61381,72.486432 1.75428,-0.0016"
             id="path1043" />
        </g>
      </g>
    </g>
  </g>
</svg>
